<svg width="28" height="28" viewBox="0 0 28 28" fill="none" xmlns="http://www.w3.org/2000/svg">
<path fill-rule="evenodd" clip-rule="evenodd" d="M14.0002 1.16681C14.8403 1.16691 15.3564 1.78135 15.6916 2.31036C16.0355 2.85321 16.3906 3.63546 16.8117 4.56329C17.3559 5.76208 17.8461 7.00678 18.4709 8.16681C18.8044 8.78575 19.3936 9.13841 20.1115 8.88361C20.5079 8.74291 20.8906 8.56211 21.2746 8.39142C22.0424 8.05012 23.0297 7.46437 23.9015 7.71368C24.635 7.92352 25.1568 8.53323 25.3283 9.24591C25.4325 9.67915 25.342 10.1241 25.2355 10.5067C25.1255 10.902 24.9465 11.3975 24.7306 11.9949L22.756 17.4598C22.3536 18.5736 22.0291 19.4728 21.6926 20.1707C21.0042 21.598 19.9183 22.4703 18.3283 22.6629C17.6039 22.7506 16.7152 22.7498 15.6349 22.7498H12.3654C11.2851 22.7498 10.3955 22.7506 9.67108 22.6629C8.08129 22.4703 6.99608 21.5979 6.30779 20.1707C5.97122 19.4727 5.64584 18.5738 5.24334 17.4598L3.26971 11.9949C3.05378 11.3974 2.87387 10.9021 2.76385 10.5067C2.65742 10.1241 2.56691 9.67913 2.67108 9.24591C2.84256 8.53327 3.36455 7.92361 4.09783 7.71368C4.98443 7.46002 5.98148 8.06108 6.7619 8.40802C7.27648 8.63673 7.6181 8.78751 7.88885 8.88361C8.60656 9.13815 9.19502 8.78551 9.5285 8.16681C10.1534 7.00672 10.6445 5.76213 11.1887 4.56329C11.6098 3.63534 11.9648 2.85323 12.3088 2.31036C12.644 1.7813 13.1599 1.16681 14.0002 1.16681ZM13.9992 15.1668C13.037 15.1668 12.257 15.9503 12.257 16.9168C12.257 17.8833 13.037 18.6668 13.9992 18.6668H14.0148C14.9769 18.6667 15.757 17.8833 15.757 16.9168C15.757 15.9504 14.9769 15.1669 14.0148 15.1668H13.9992Z" fill="#F39510"/>
<path fill-rule="evenodd" clip-rule="evenodd" d="M6.99976 25.6667C6.99976 25.0223 7.52209 24.5 8.16642 24.5H19.8331C20.4774 24.5 20.9998 25.0223 20.9998 25.6667C20.9998 26.311 20.4774 26.8333 19.8331 26.8333H8.16642C7.52209 26.8333 6.99976 26.311 6.99976 25.6667Z" fill="#F39510"/>
</svg>
