<svg xmlns="http://www.w3.org/2000/svg" viewBox="0 0 320 160" width="100%" height="100%" role="img" aria-label="Instaly Logo">
  <title>Instaly Logo</title>
  <polygon points="160.0,21.2 185.6,35.9 160.0,50.0 134.4,35.9" fill="#2D6A4F" fill-opacity="0.4" />
  <polygon points="134.4,35.9 160.0,50.0 160.0,78.8 134.4,64.1" fill="#2D6A4F" />
  <polygon points="160.0,50.0 185.6,35.9 185.6,64.1 160.0,78.8" fill="#74C69D" fill-opacity="0.85" />
  <g transform="translate(101.6, 128.0)">
    <path d="M2.3100002 0L2.3100002 -1.804L5.5880003 -1.804L5.5880003 -14.256001L2.3100002 -14.256001L2.3100002 -16.060001L10.89 -16.060001L10.89 -14.256001L7.6120005 -14.256001L7.6120005 -1.804L10.89 -1.804L10.89 0L2.3100002 0ZM18.48 0L18.48 -16.060001L21.120001 -16.060001L26.026001 -2.3100002Q25.982 -2.8599999 25.927002 -3.6630001Q25.872002 -4.4660001 25.839001 -5.3570004Q25.806 -6.2480001 25.806 -7.0400004L25.806 -16.060001L27.720001 -16.060001L27.720001 0L25.08 0L20.196001 -13.75Q20.24 -13.221999 20.284 -12.419001Q20.327999 -11.615997 20.361 -10.725Q20.393999 -9.8339996 20.394001 -9.0200005L20.394001 0L18.48 0ZM39.688 0.22000001Q38.104 0.22000001 36.971001 -0.308Q35.838001 -0.83600008 35.222 -1.8260001Q34.605999 -2.8160002 34.584 -4.1800003L36.563999 -4.1800003Q36.563999 -2.9699998 37.389 -2.2660003Q38.214001 -1.562 39.688 -1.562Q41.074001 -1.562 41.855 -2.2440002Q42.636002 -2.9259996 42.636002 -4.1360002Q42.636002 -5.1040001 42.118999 -5.8300004Q41.601997 -6.5559998 40.633999 -6.8420005L38.456001 -7.5240002Q36.806 -8.0300007 35.915001 -9.2180004Q35.024002 -10.406 35.024002 -12.012Q35.024002 -13.31 35.606998 -14.267Q36.189999 -15.224001 37.246002 -15.763Q38.302002 -16.302002 39.732002 -16.302002Q41.844002 -16.302002 43.119999 -15.125001Q44.396 -13.947999 44.417999 -11.990001L42.438 -11.990001Q42.438 -13.177999 41.723 -13.849001Q41.007999 -14.52 39.709999 -14.52Q38.433998 -14.52 37.719002 -13.904Q37.003998 -13.287999 37.004002 -12.188001Q37.004002 -11.197999 37.532001 -10.472Q38.060001 -9.7459993 39.049999 -9.4380007L41.25 -8.7340002Q42.855999 -8.2279997 43.736 -7.0180001Q44.616001 -5.8079991 44.616001 -4.1800003Q44.616001 -2.8599999 44 -1.87Q43.383999 -0.88 42.273003 -0.33000001Q41.162003 0.22000003 39.688 0.22000001ZM55.110001 0L55.110001 -14.278001L50.709999 -14.278001L50.709999 -16.082001L61.490002 -16.082001L61.490002 -14.278001L57.09 -14.278001L57.09 0L55.110001 0ZM67.099998 0L71.279999 -16.060001L73.942001 -16.060001L78.099998 0L76.098 0L75.042 -4.2680001L70.18 -4.2680001L69.124001 0L67.099998 0ZM70.576004 -5.9400001L74.624001 -5.9400001L73.391998 -10.89Q73.040001 -12.298 72.842003 -13.244001Q72.643997 -14.190002 72.599998 -14.476001Q72.556 -14.19 72.358002 -13.244001Q72.159996 -12.298 71.807999 -10.912001L70.576004 -5.9400001ZM85.029999 0L85.029999 -16.060001L87.010002 -16.060001L87.010002 -1.804L94.270004 -1.804L94.270004 0L85.029999 0ZM104.61 0L104.61 -6.006L99.769997 -16.060001L101.816 -16.060001L105.006 -9.46Q105.27 -8.9100008 105.424 -8.5250006Q105.578 -8.1400003 105.622 -7.9640002Q105.666 -8.1399994 105.831 -8.5250006Q105.996 -8.9100008 106.26 -9.46L109.384 -16.060001L111.43 -16.060001L106.59 -6.006L106.59 0L104.61 0Z" fill="#2D6A4F" />
  </g>
</svg>
