<svg xmlns="http://www.w3.org/2000/svg" viewBox="0 0 320 160" width="100%" height="100%" role="img" aria-label="AuraCall Logo">
  <title>AuraCall Logo</title>
  <rect x="130.4" y="20.4" width="59.2" height="59.2" rx="6" fill="none" stroke="#E9D5FF" stroke-width="4.8" />
  <g transform="translate(149.9, 60.0)">
    <path d="M4.6694403 -5.2223997L4.6694403 -7.5264001L14.25408 -7.5264001L14.25408 -5.2223997L4.6694403 -5.2223997ZM0.61440003 0L8.20224 -19.968L10.782721 -19.968L18.432001 0L15.79008 0L9.1238403 -18.06336L9.8611202 -18.06336L3.19488 0L0.61440003 0Z" fill="#7E22CE" />
  </g>
  <g transform="translate(101.2, 127.2)">
    <path d="M3.3440003 -3.74L3.3440003 -5.3900003L10.208 -5.3900003L10.208 -3.74L3.3440003 -3.74ZM0.44000003 0L5.8740005 -14.300001L7.7220001 -14.300001L13.200001 0L11.308 0L6.5340004 -12.936L7.0620003 -12.936L2.2880001 0L0.44000003 0ZM26.290001 -5.5L26.290001 -14.300001L28.050001 -14.300001L28.050001 -5.5Q28.050001 -4.29 27.764002 -3.355Q27.478001 -2.4200001 26.961 -1.738Q26.444002 -1.056 25.718 -0.62700003Q24.992001 -0.19799998 24.101002 0.011000001Q23.210001 0.22000001 22.198 0.22000001Q21.164 0.22000001 20.262001 0.011000001Q19.360001 -0.19800001 18.623001 -0.62700003Q17.886 -1.0559999 17.368999 -1.738Q16.852001 -2.4200001 16.566 -3.355Q16.280001 -4.29 16.280001 -5.5L16.280001 -14.300001L18.040001 -14.300001L18.040001 -5.5Q18.040001 -3.8500004 18.612 -2.97Q19.184 -2.0899999 20.130001 -1.7600001Q21.076 -1.4299999 22.198 -1.4300001Q23.298 -1.4299999 24.222 -1.7600001Q25.146 -2.0899999 25.718 -2.97Q26.290001 -3.8499997 26.290001 -5.5ZM32.450001 0L32.450001 -14.300001L38.764 -14.300001Q40.260002 -14.300001 41.316002 -13.849001Q42.372002 -13.397999 42.932999 -12.496Q43.493999 -11.594002 43.494003 -10.23Q43.494003 -9.3059988 43.197002 -8.6459999Q42.900002 -7.9859996 42.372002 -7.5350008Q41.844002 -7.0840001 41.129002 -6.8420005Q40.414001 -6.6000004 39.578003 -6.5340004L39.512001 -6.6440005Q40.678001 -6.6000004 41.514 -6.3580003Q42.349998 -6.1160011 42.812 -5.4780002Q43.274002 -4.8400002 43.274002 -3.5640001L43.274002 0L41.514 0L41.514 -3.5640001Q41.514 -4.4440002 41.217003 -4.9390001Q40.920002 -5.434 40.227001 -5.6430001Q39.534 -5.8519993 38.324001 -5.8520002L34.209999 -5.8520002L34.209999 0L32.450001 0ZM34.209999 -7.5020003L38.764 -7.5020003Q40.260002 -7.5020003 40.997002 -8.2610006Q41.734001 -9.0200005 41.734001 -10.23Q41.734001 -11.395999 40.997002 -12.023001Q40.260002 -12.650002 38.764 -12.650002L34.209999 -12.650002L34.209999 -7.5020003ZM49.038002 -3.74L49.038002 -5.3900003L55.902 -5.3900003L55.902 -3.74L49.038002 -3.74ZM46.133999 0L51.568001 -14.300001L53.416 -14.300001L58.894001 0L57.001999 0L52.228001 -12.936L52.756001 -12.936L47.982002 0L46.133999 0ZM74.272003 -4.7740002Q74.052002 -3.2339997 73.216003 -2.112Q72.379997 -0.98999995 71.093002 -0.38499999Q69.806 0.22000003 68.222 0.22000001Q66.748001 0.22000001 65.494003 -0.29700002Q64.239998 -0.81399995 63.305 -1.7820001Q62.369999 -2.75 61.841999 -4.1140003Q61.313999 -5.4779997 61.313999 -7.1500006Q61.313999 -8.8439999 61.841999 -10.197001Q62.369999 -11.550001 63.305 -12.518Q64.239998 -13.486001 65.494003 -14.003Q66.748001 -14.52 68.222 -14.52Q69.828003 -14.52 71.115005 -13.915001Q72.402 -13.31 73.237999 -12.177Q74.073997 -11.044003 74.293999 -9.4820004L72.666 -9.4820004Q72.358002 -10.582 71.709 -11.330001Q71.059998 -12.078001 70.158005 -12.474001Q69.255997 -12.87 68.222 -12.870001Q66.879997 -12.870001 65.703003 -12.21Q64.526001 -11.549999 63.799999 -10.274Q63.074001 -8.9980001 63.074001 -7.1500006Q63.074001 -5.3019996 63.799999 -4.0260005Q64.526001 -2.7499998 65.703003 -2.0900002Q66.880005 -1.4299999 68.222 -1.4300001Q69.255997 -1.4299999 70.147003 -1.8150001Q71.038002 -2.1999998 71.687004 -2.948Q72.335999 -3.6959999 72.643997 -4.7740002L74.272003 -4.7740002ZM79.618004 -3.74L79.618004 -5.3900003L86.482002 -5.3900003L86.482002 -3.74L79.618004 -3.74ZM76.714005 0L82.148003 -14.300001L83.996002 -14.300001L89.473999 0L87.582001 0L82.807999 -12.936L83.335999 -12.936L78.562004 0L76.714005 0ZM94.314003 -14.300001L94.314003 -1.6500001L102.23401 -1.6500001L102.23401 0L92.554008 0L92.554008 -14.300001L94.314003 -14.300001ZM107.734 -14.300001L107.734 -1.6500001L115.65401 -1.6500001L115.65401 0L105.97401 0L105.97401 -14.300001L107.734 -14.300001Z" fill="#7E22CE" />
  </g>
</svg>
