<svg xmlns="http://www.w3.org/2000/svg" viewBox="0 0 100 100" width="100%" height="100%" role="img" aria-label="Mobilflow Logo">
  <title>Mobilflow Logo</title>
  <circle cx="50.0" cy="50.0" r="34.0" fill="#0284C7" />
  <g transform="translate(25.1, 59.8)">
    <path d="M20.748001 -19.992001L20.972 -18.116001L13.944 -2.4640002Q13.943999 -2.4640002 13.734001 -1.988Q13.523999 -1.512 13.300001 -0.85400009Q13.075999 -0.19600004 12.992001 0.39200002L12.712001 0.39200002L12.320001 -1.3720001L20.748001 -19.992001ZM3.5280001 -2.0440001L3.5280001 0L0.42000002 0L0.42000002 -0.28000003Q0.44800001 -0.28000003 0.65800005 -0.28000003Q0.86799997 -0.28000003 0.86800003 -0.28000003Q1.624 -0.28000003 2.2120001 -0.74200004Q2.7999997 -1.204 2.9120002 -2.0440001L3.5280001 -2.0440001ZM4.3400002 -1.5960001Q4.3400002 -1.568 4.3400002 -1.5400001Q4.3400002 -1.512 4.3400002 -1.4560001Q4.3400002 -1.0079999 4.6620002 -0.63Q4.9840002 -0.25199997 5.4320002 -0.252L5.8520002 -0.252L5.8520002 0L4.1440001 0L4.1440001 -1.5960001L4.3400002 -1.5960001ZM5.0120001 -19.992001L5.2920003 -19.992001L5.8520002 -18.34L4.2000003 0L2.688 0L5.0120001 -19.992001ZM5.2920003 -19.992001L13.356001 -2.5480001L12.712001 0.39200002L4.7600002 -16.856001L5.2920003 -19.992001ZM21.000002 -19.992001L23.408001 0L21.224001 0L19.684 -16.968L20.748001 -19.992001L21.000002 -19.992001ZM22.568001 -2.0440001L23.156 -2.0440001Q23.296001 -1.204 23.884001 -0.74200004Q24.471998 -0.28 25.200001 -0.28000003Q25.199999 -0.28000003 25.424002 -0.28000003Q25.648003 -0.28000003 25.648003 -0.28000003L25.648003 0L22.568001 0L22.568001 -2.0440001ZM21.084 -1.5960001L21.280001 -1.5960001L21.280001 0L19.572002 0L19.572002 -0.252L19.992001 -0.252Q20.467999 -0.252 20.776001 -0.63Q21.084 -1.0079999 21.084 -1.4560001Q21.084 -1.5120001 21.084 -1.5400001Q21.084 -1.568 21.084 -1.5960001ZM37.520004 -19.992001Q40.515999 -19.992001 42.784004 -18.718Q45.052002 -17.444 46.326004 -15.148001Q47.599998 -12.851999 47.600002 -9.8000011Q47.599998 -6.7479992 46.326004 -4.4520001Q45.052002 -2.1560001 42.784004 -0.88200003Q40.516003 0.39199996 37.520004 0.39200002Q34.552002 0.39200002 32.284 -0.88200003Q30.016003 -2.1560001 28.742001 -4.4520001Q27.468 -6.7480001 27.468002 -9.8000011Q27.468 -12.851999 28.742001 -15.148001Q30.016003 -17.443998 32.284 -18.718Q34.552002 -19.992001 37.520004 -19.992001ZM37.520004 -0.44800001Q39.900002 -0.44800001 41.678001 -1.6240001Q43.456001 -2.7999997 44.450005 -4.9000006Q45.444 -6.9999995 45.444 -9.8000011Q45.444 -12.599999 44.450005 -14.700001Q43.456001 -16.800001 41.678001 -17.976Q39.900002 -19.151997 37.520004 -19.152Q35.168003 -19.152 33.390003 -17.976Q31.612001 -16.800001 30.618002 -14.700001Q29.624001 -12.599999 29.624001 -9.8000011Q29.624001 -6.9999995 30.618002 -4.9000006Q31.612001 -2.7999997 33.390003 -1.6240001Q35.168003 -0.44799995 37.520004 -0.44800001Z" fill="#FFFFFF" />
  </g>
</svg>
