<svg width="48" height="48" viewBox="0 0 48 48" fill="none" xmlns="http://www.w3.org/2000/svg">
<g opacity="0.6" clip-path="url(#clip0_20128_20300)">
<path d="M22.4625 15.4237L12.66 9.94123C12.5546 9.88232 12.4668 9.79635 12.4057 9.6922C12.3446 9.58805 12.3124 9.46948 12.3124 9.34873C12.3124 9.22797 12.3446 9.10941 12.4057 9.00525C12.4668 8.9011 12.5546 8.81514 12.66 8.75623L22.4625 3.26998C22.5978 3.19444 22.7501 3.15479 22.905 3.15479C23.0599 3.15479 23.2122 3.19444 23.3475 3.26998L33.15 8.75623C33.2554 8.81514 33.3432 8.9011 33.4043 9.00525C33.4654 9.10941 33.4976 9.22797 33.4976 9.34873C33.4976 9.46948 33.4654 9.58805 33.4043 9.6922C33.3432 9.79635 33.2554 9.88232 33.15 9.94123L23.3475 15.4237C23.2122 15.4993 23.0599 15.5389 22.905 15.5389C22.7501 15.5389 22.5978 15.4993 22.4625 15.4237Z" fill="#3E3E3E"/>
<path d="M10.1025 23.0849V12.2774C10.1023 12.1587 10.1332 12.042 10.1921 11.9389C10.2511 11.8359 10.336 11.7501 10.4385 11.6901C10.5409 11.6301 10.6573 11.5981 10.7761 11.5972C10.8948 11.5963 11.0117 11.6265 11.115 11.6849L21.1913 17.3361C21.3312 17.4156 21.4475 17.5306 21.5285 17.6696C21.6096 17.8086 21.6523 17.9665 21.6525 18.1274V28.9349C21.6536 29.0535 21.6233 29.1703 21.5648 29.2735C21.5063 29.3767 21.4217 29.4626 21.3194 29.5227C21.2171 29.5828 21.1008 29.6149 20.9822 29.6157C20.8636 29.6165 20.7469 29.586 20.6438 29.5274L10.5638 23.8761C10.4237 23.797 10.3071 23.682 10.226 23.543C10.145 23.4039 10.1024 23.2458 10.1025 23.0849Z" fill="#3E3E3E"/>
<path d="M10.1025 38.31V27.5025C10.1023 27.3838 10.1332 27.2671 10.1921 27.164C10.2511 27.061 10.336 26.9752 10.4385 26.9152C10.5409 26.8552 10.6573 26.8232 10.7761 26.8223C10.8948 26.8214 11.0117 26.8516 11.115 26.91L21.1913 32.565C21.3314 32.6432 21.448 32.7575 21.5291 32.8959C21.6102 33.0344 21.6528 33.192 21.6525 33.3525V44.1637C21.6524 44.2819 21.6215 44.398 21.5627 44.5006C21.504 44.6031 21.4195 44.6885 21.3175 44.7484C21.2156 44.8082 21.0999 44.8404 20.9817 44.8418C20.8635 44.8432 20.7471 44.8137 20.6438 44.7562L10.5638 39.1012C10.4237 39.0221 10.3071 38.9071 10.226 38.7681C10.145 38.629 10.1024 38.4709 10.1025 38.31Z" fill="#3E3E3E"/>
<path d="M35.7075 23.085V12.2775C35.7085 12.1589 35.6782 12.0421 35.6198 11.9389C35.5613 11.8357 35.4766 11.7497 35.3744 11.6897C35.2721 11.6296 35.1558 11.5975 35.0372 11.5967C34.9186 11.5959 34.8018 11.6263 34.6987 11.685L24.6187 17.3362C24.4788 17.4157 24.3625 17.5307 24.2815 17.6697C24.2005 17.8087 24.1577 17.9666 24.1575 18.1275V28.935C24.1572 29.0537 24.1881 29.1704 24.247 29.2735C24.306 29.3765 24.3909 29.4623 24.4934 29.5223C24.5959 29.5822 24.7123 29.6143 24.831 29.6152C24.9497 29.6161 25.0666 29.5859 25.17 29.5275L35.25 23.8762C35.3894 23.7966 35.5052 23.6814 35.5856 23.5424C35.666 23.4034 35.708 23.2456 35.7075 23.085Z" fill="#3E3E3E"/>
<path d="M39.3975 36.2887V25.4774C39.3974 25.3593 39.3664 25.2432 39.3076 25.1406C39.2489 25.0381 39.1644 24.9527 39.0625 24.8928C38.9606 24.833 38.8448 24.8007 38.7266 24.7994C38.6085 24.798 38.492 24.8275 38.3887 24.8849L24.6225 32.5649C24.4814 32.6424 24.3638 32.7564 24.282 32.8949C24.2002 33.0335 24.1571 33.1915 24.1575 33.3524V44.1674C24.1576 44.2856 24.1885 44.4017 24.2473 44.5043C24.3061 44.6068 24.3906 44.6922 24.4925 44.7521C24.5944 44.8119 24.7101 44.8441 24.8283 44.8455C24.9465 44.8469 25.063 44.8174 25.1662 44.7599L38.9325 37.0799C39.0736 37.0016 39.1911 36.8869 39.2729 36.7477C39.3547 36.6086 39.3977 36.4501 39.3975 36.2887Z" fill="#3E3E3E"/>
</g>
<defs>
<clipPath id="clip0_20128_20300">
<rect width="48" height="48" fill="white"/>
</clipPath>
</defs>
</svg>
