<svg width="48" height="48" viewBox="0 0 48 48" fill="none" xmlns="http://www.w3.org/2000/svg">
<g opacity="0.8">
<path d="M15.0163 14.7519C15.0163 16.0305 15.2963 17.245 15.7995 18.3399C17.4504 16.0193 20.0968 14.4284 23.1327 14.1604C21.5318 12.037 18.9739 10.6476 16.0826 10.6026C15.4024 11.8374 15.0163 13.2505 15.0163 14.7519Z" fill="#3E3E3E"/>
<path d="M14.8674 19.9569C12.1249 20.2773 9.76383 21.8138 8.36236 24C9.77131 26.1979 12.1502 27.7391 14.9113 28.0482C14.3279 26.8019 14.0027 25.4156 14.0027 23.9549C14.0027 22.5313 14.3116 21.1784 14.8674 19.9569Z" fill="#3E3E3E"/>
<path d="M7.77277 25.0815C7.27613 26.1704 7.00002 27.3769 7.00002 28.6466C7.00002 33.1074 10.4082 36.7887 14.8138 37.33C14.2338 36.0866 13.9106 34.7043 13.9106 33.2481C13.9106 31.7773 14.2403 30.3819 14.8313 29.129C11.9257 28.8172 9.39281 27.2918 7.77277 25.0815Z" fill="#3E3E3E"/>
<path d="M7.77277 22.9185C7.27613 21.8296 7.00002 20.6231 7.00002 19.3534C7.00002 14.8926 10.4082 11.2113 14.8138 10.67C14.2338 11.9134 13.9106 13.2957 13.9106 14.7519C13.9106 16.2227 14.2403 17.6181 14.8313 18.871C11.9257 19.1828 9.39281 20.7082 7.77277 22.9185Z" fill="#3E3E3E"/>
<path d="M16.7479 19.9302C18.1838 21.843 20.3949 23.1631 22.9276 23.4467C22.8476 23.2759 22.7725 23.1025 22.7025 22.9266C21.2292 21.2573 19.1223 20.1392 16.7479 19.9302Z" fill="#3E3E3E"/>
<path d="M22.1448 20.9146C20.6452 19.7586 18.801 19.012 16.7879 18.8468C18.2039 16.9209 20.3995 15.5815 22.9222 15.2715C22.3422 16.5149 22.019 17.8972 22.019 19.3534C22.019 19.8847 22.062 20.4062 22.1448 20.9146Z" fill="#3E3E3E"/>
<path d="M24 22.7811C23.8936 22.641 23.7834 22.5038 23.6697 22.3696C23.3171 21.4293 23.1247 20.4134 23.1247 19.3534C23.1247 17.9988 23.439 16.7161 24 15.5713C24.5611 16.7161 24.8754 17.9988 24.8754 19.3534C24.8754 20.4134 24.6829 21.4293 24.3304 22.3696C24.2166 22.5038 24.1065 22.641 24 22.7811Z" fill="#3E3E3E"/>
<path d="M25.2976 25.0734C25.2291 24.9014 25.1558 24.7318 25.0778 24.5648C27.5656 24.8704 29.7354 26.1774 31.153 28.0605C28.8191 27.8296 26.7504 26.7194 25.2976 25.0734Z" fill="#3E3E3E"/>
<path d="M24.3304 25.6304C24.2166 25.4962 24.1065 25.359 24 25.2189C23.8936 25.359 23.7834 25.4962 23.6697 25.6304C23.3171 26.5707 23.1247 27.5866 23.1247 28.6466C23.1247 30.0012 23.439 31.2839 24 32.4287C24.5611 31.2839 24.8754 30.0012 24.8754 28.6466C24.8754 27.5866 24.6829 26.5707 24.3304 25.6304Z" fill="#3E3E3E"/>
<path d="M25.1164 32.6446C25.6722 31.4231 25.981 30.0702 25.981 28.6466C25.981 28.1153 25.938 27.5938 25.8552 27.0854C27.3607 28.2459 29.2134 28.9938 31.2356 29.1551C29.8076 31.045 27.6211 32.3519 25.1164 32.6446Z" fill="#3E3E3E"/>
<path d="M24 34.5121C25.6599 36.6963 28.2236 38.1828 31.149 38.4411C29.5213 40.5999 26.9046 42 23.9539 42C21.0066 42 18.3925 40.603 16.7644 38.4484C19.7258 38.2121 22.3237 36.7178 24 34.5121Z" fill="#3E3E3E"/>
<path d="M23.1959 33.7547C21.5995 35.9259 19.0123 37.3518 16.0826 37.3974C15.4024 36.1626 15.0163 34.7495 15.0163 33.2481C15.0163 31.9482 15.3057 30.7145 15.8249 29.6054C17.489 31.9227 20.149 33.5047 23.1959 33.7547Z" fill="#3E3E3E"/>
<path d="M15.1084 23.9549C15.1084 25.1946 15.3716 26.3741 15.8463 27.4427C17.0136 25.8822 18.6395 24.6712 20.5296 24C18.626 23.324 16.9904 22.1005 15.8214 20.5238C15.3624 21.5774 15.1084 22.7371 15.1084 23.9549Z" fill="#3E3E3E"/>
<path d="M16.8511 29.1479C18.2604 31.017 20.4112 32.3175 22.8782 32.6327C22.3259 31.4143 22.019 30.0656 22.019 28.6466C22.019 28.1153 22.062 27.5938 22.1448 27.0854C20.6609 28.2293 18.8395 28.9723 16.8511 29.1479Z" fill="#3E3E3E"/>
<path d="M31.8263 37.3955C28.9372 37.3221 26.3893 35.9063 24.8091 33.7615C27.8238 33.5398 30.4673 32.0148 32.1537 29.7603C32.6284 30.8289 32.8916 32.0084 32.8916 33.2481C32.8916 34.7487 32.5059 36.1612 31.8263 37.3955Z" fill="#3E3E3E"/>
<path d="M39.6377 24C38.2453 26.172 35.9058 27.7026 33.1862 28.0367C33.7662 26.7934 34.0894 25.4111 34.0894 23.9549C34.0894 22.5359 33.7826 21.1872 33.2302 19.9688C35.9311 20.3139 38.2528 21.8398 39.6377 24Z" fill="#3E3E3E"/>
<path d="M32.9838 23.9549C32.9838 22.6763 32.7038 21.4618 32.2005 20.3669C31.0249 22.0193 29.3446 23.3017 27.3783 24C29.3305 24.6933 31.0008 25.9623 32.1751 27.5976C32.6943 26.4885 32.9838 25.2548 32.9838 23.9549Z" fill="#3E3E3E"/>
<path d="M32.8916 14.7519C32.8916 15.9697 32.6376 17.1294 32.1786 18.1829C30.5052 15.926 27.8759 14.3927 24.8728 14.1531C26.4573 12.0562 28.9757 10.6769 31.8263 10.6045C32.5059 11.8388 32.8916 13.2513 32.8916 14.7519Z" fill="#3E3E3E"/>
<path d="M31.2993 18.84C29.8649 16.893 27.6331 15.5468 25.0725 15.2601C25.6558 16.5064 25.981 17.8927 25.981 19.3534C25.981 19.8847 25.938 20.4062 25.8552 20.9146C27.3765 19.742 29.2523 18.9905 31.2993 18.84Z" fill="#3E3E3E"/>
<path d="M22.7025 25.0734C21.2292 26.7426 19.1223 27.8608 16.7479 28.0698C18.1838 26.157 20.3949 24.8369 22.9276 24.5533C22.8476 24.7241 22.7725 24.8975 22.7025 25.0734Z" fill="#3E3E3E"/>
<path d="M25.0778 23.4352C25.1558 23.2682 25.2291 23.0986 25.2976 22.9266C26.7504 21.2806 28.8191 20.1704 31.153 19.9395C29.7354 21.8226 27.5656 23.1296 25.0778 23.4352Z" fill="#3E3E3E"/>
<path d="M24 13.4879C25.6599 11.3037 28.2236 9.81714 31.149 9.55891C29.5213 7.40013 26.9046 6 23.9539 6C21.0066 6 18.3925 7.397 16.7644 9.55164C19.7258 9.78791 22.3237 11.2822 24 13.4879Z" fill="#3E3E3E"/>
<path d="M40.2273 25.0815C38.5909 27.314 36.0233 28.8479 33.0808 29.138C33.6692 30.3887 33.9973 31.7809 33.9973 33.2481C33.9973 34.7088 33.6721 36.0951 33.0887 37.3414C37.5415 36.8429 41 33.1402 41 28.6466C41 27.3769 40.7239 26.1704 40.2273 25.0815Z" fill="#3E3E3E"/>
<path d="M41 19.3534C41 20.6231 40.7239 21.8296 40.2273 22.9185C38.5909 20.686 36.0233 19.1521 33.0808 18.862C33.6692 17.6113 33.9973 16.2191 33.9973 14.7519C33.9973 13.2912 33.6721 11.9049 33.0887 10.6586C37.5415 11.1571 41 14.8597 41 19.3534Z" fill="#3E3E3E"/>
</g>
</svg>
