<svg width="48" height="48" viewBox="0 0 48 48" fill="none" xmlns="http://www.w3.org/2000/svg">
<g opacity="0.8" clip-path="url(#clip0_20128_20299)">
<path d="M32.9513 9.99015L33.7501 7.6464C33.7942 7.52911 33.8082 7.40263 33.7909 7.27852C33.7735 7.15442 33.7254 7.03663 33.6508 6.93594C33.5762 6.83524 33.4775 6.75484 33.3639 6.70208C33.2502 6.64931 33.1251 6.62587 33.0001 6.6339H29.6626L28.5788 9.8889H26.8426L27.5926 7.6389C27.6358 7.52345 27.6499 7.39913 27.6336 7.27694C27.6173 7.15475 27.5712 7.03845 27.4993 6.93834C27.4273 6.83823 27.3318 6.7574 27.2212 6.70299C27.1106 6.64858 26.9883 6.62227 26.8651 6.6264H23.5201L22.4363 9.8814H10.3876C10.0757 9.88058 9.76907 9.96238 9.49902 10.1185C9.22896 10.2746 9.00506 10.4994 8.85009 10.7701L5.90259 15.9414H28.1251C33.3226 15.9414 34.5001 19.5789 32.1451 24.5251C29.8088 29.4076 25.6838 33.8326 17.4413 34.1251L22.8188 20.4189C22.885 20.2526 22.9095 20.0726 22.89 19.8946C22.8705 19.7167 22.8076 19.5462 22.707 19.3982C22.6063 19.2501 22.4709 19.129 22.3126 19.0455C22.1542 18.9619 21.9779 18.9185 21.7988 18.9189H14.8238L6.22509 40.0914C6.22509 40.0914 7.37634 40.2489 8.31009 40.3014C9.48384 40.3689 10.7363 40.3801 10.7363 40.3801L9.90009 42.8664H13.7513C13.9127 42.8657 14.0698 42.8148 14.2008 42.7207C14.3319 42.6266 14.4304 42.494 14.4826 42.3414L15.1501 40.3314C15.7651 40.2789 16.3651 40.2189 16.9501 40.1514L16.0463 42.8664H19.8976C20.0585 42.8661 20.2153 42.8152 20.3459 42.721C20.4764 42.6268 20.5741 42.4941 20.6251 42.3414L21.6076 39.3751C36.8663 36.0714 40.7326 26.5614 42.2926 21.4426C44.8538 13.0464 37.9988 10.5001 32.9513 9.99015Z" fill="#3E3E3E"/>
</g>
<defs>
<clipPath id="clip0_20128_20299">
<rect width="48" height="48" fill="white"/>
</clipPath>
</defs>
</svg>
