<svg width="48" height="48" viewBox="0 0 48 48" fill="none" xmlns="http://www.w3.org/2000/svg">
<g opacity="0.9">
<path d="M24 13.0463C27.7672 13.0463 30.8212 11.2515 30.8212 9.03756C30.8212 6.82359 27.7672 5.02881 24 5.02881C20.2327 5.02881 17.1787 6.82359 17.1787 9.03756C17.1787 11.2515 20.2327 13.0463 24 13.0463Z" fill="#3E3E3E"/>
<path d="M24 42.9714C27.7672 42.9714 30.8212 41.1766 30.8212 38.9626C30.8212 36.7486 27.7672 34.9539 24 34.9539C20.2327 34.9539 17.1787 36.7486 17.1787 38.9626C17.1787 41.1766 20.2327 42.9714 24 42.9714Z" fill="#3E3E3E"/>
<path d="M14.4542 37.3878C16.3715 36.2808 16.3989 32.7386 14.5152 29.476C12.6316 26.2135 9.55029 24.466 7.63293 25.573C5.71558 26.68 5.68824 30.2222 7.57188 33.4848C9.45551 36.7473 12.5368 38.4948 14.4542 37.3878Z" fill="#3E3E3E"/>
<path d="M40.3675 22.4273C42.2849 21.3203 42.3122 17.7781 40.4286 14.5156C38.5449 11.253 35.4636 9.50558 33.5463 10.6126C31.6289 11.7196 31.6016 15.2618 33.4852 18.5243C35.3688 21.7869 38.4502 23.5343 40.3675 22.4273Z" fill="#3E3E3E"/>
<path d="M40.5682 33.3382C42.4519 30.0607 42.4174 26.5063 40.4912 25.3993C38.5651 24.2923 35.4766 26.0519 33.593 29.3294C31.7094 32.607 31.7438 36.1613 33.67 37.2683C35.5961 38.3753 38.6846 36.6157 40.5682 33.3382Z" fill="#3E3E3E"/>
<path d="M14.5129 18.5232C16.3966 15.2607 16.3692 11.7185 14.4519 10.6115C12.5345 9.50451 9.4532 11.2519 7.56956 14.5145C5.68592 17.7771 5.71326 21.3193 7.63061 22.4262C9.54797 23.5332 12.6293 21.7858 14.5129 18.5232Z" fill="#3E3E3E"/>
</g>
</svg>
